<svg width="15" height="15" viewBox="0 0 15 15" fill="none" xmlns="http://www.w3.org/2000/svg">
<path fill-rule="evenodd" clip-rule="evenodd" d="M1.66667 0H13.3333C14.2538 0 15 0.746192 15 1.66667V13.3333C15 14.2538 14.2538 15 13.3333 15H1.66667C0.746192 15 0 14.2538 0 13.3333V1.66667C0 0.746192 0.746192 0 1.66667 0ZM4.16667 12.5C4.39678 12.5 4.58333 12.3134 4.58333 12.0833V6.25C4.58333 6.01992 4.39678 5.83333 4.16667 5.83333H2.91667C2.68655 5.83333 2.5 6.01992 2.5 6.25V12.0833C2.5 12.3134 2.68655 12.5 2.91667 12.5H4.16667ZM3.54167 5C2.85131 5 2.29167 4.44036 2.29167 3.75C2.29167 3.05964 2.85131 2.5 3.54167 2.5C4.23202 2.5 4.79167 3.05964 4.79167 3.75C4.79167 4.44036 4.23202 5 3.54167 5ZM12.0833 12.5C12.3134 12.5 12.5 12.3134 12.5 12.0833V8.25C12.5271 6.92567 11.548 5.79543 10.2333 5.63333C9.31417 5.54938 8.42358 5.97867 7.91667 6.75V6.25C7.91667 6.01992 7.73008 5.83333 7.5 5.83333H6.25C6.01992 5.83333 5.83333 6.01992 5.83333 6.25V12.0833C5.83333 12.3134 6.01992 12.5 6.25 12.5H7.5C7.73008 12.5 7.91667 12.3134 7.91667 12.0833V8.95833C7.91667 8.268 8.47633 7.70833 9.16667 7.70833C9.857 7.70833 10.4167 8.268 10.4167 8.95833V12.0833C10.4167 12.3134 10.6032 12.5 10.8333 12.5H12.0833Z" fill="white" fill-opacity="0.65"/>
</svg>
