<svg width="15" height="13" viewBox="0 0 15 13" fill="none" xmlns="http://www.w3.org/2000/svg">
<path d="M14.978 1.84783C14.591 2.3641 14.1232 2.81444 13.5926 3.18147C13.5926 3.31633 13.5926 3.45118 13.5926 3.59354C13.5969 6.04258 12.6186 8.39092 10.8772 10.1121C9.13571 11.8333 6.77671 12.7833 4.32909 12.7491C2.91404 12.7538 1.51711 12.4308 0.247731 11.8051C0.179281 11.7752 0.135139 11.7075 0.135397 11.6328V11.5503C0.135397 11.4428 0.222572 11.3556 0.330106 11.3556C1.72106 11.3097 3.0624 10.8274 4.16433 9.977C2.90532 9.95158 1.77254 9.20575 1.25121 8.05892C1.22489 7.99634 1.23308 7.92442 1.27286 7.86933C1.31262 7.81425 1.37821 7.78392 1.44592 7.78925C1.82856 7.82767 2.21503 7.79208 2.58421 7.68433C1.19437 7.39583 0.150055 6.242 0.000597133 4.82975C-0.0047112 4.762 0.0256471 4.69642 0.0807137 4.65658C0.135772 4.61684 0.20758 4.60858 0.270197 4.635C0.643164 4.79958 1.04579 4.88625 1.45341 4.88967C0.23558 4.09038 -0.290445 2.57004 0.172839 1.18852C0.220664 1.05428 0.335555 0.955102 0.475297 0.927452C0.61503 0.899793 0.759014 0.947735 0.854314 1.05366C2.49771 2.80271 4.75575 3.84497 7.1523 3.96066C7.09096 3.71571 7.0608 3.46397 7.06246 3.21143C7.08488 1.88727 7.90421 0.707676 9.13688 0.224893C10.3695 -0.257882 11.7715 0.0516935 12.6865 1.0087C13.3102 0.889877 13.9132 0.680377 14.4763 0.386843C14.5175 0.361093 14.5699 0.361093 14.6111 0.386843C14.6369 0.42811 14.6369 0.480435 14.6111 0.521702C14.3384 1.14627 13.8776 1.6701 13.2931 2.02016C13.805 1.9608 14.3078 1.84006 14.7909 1.66053C14.8315 1.63285 14.885 1.63285 14.9256 1.66053C14.9597 1.67612 14.9852 1.70593 14.9953 1.74202C15.0054 1.77811 14.999 1.81682 14.978 1.84783Z" fill="white" fill-opacity="0.65"/>
</svg>
